<svg xmlns="http://www.w3.org/2000/svg" viewBox="0 0 980 980" fill="none" shape-rendering="auto"><metadata xmlns:rdf="http://www.w3.org/1999/02/22-rdf-syntax-ns#" xmlns:xsi="http://www.w3.org/2001/XMLSchema-instance" xmlns:dc="http://purl.org/dc/elements/1.1/" xmlns:dcterms="http://purl.org/dc/terms/"><rdf:RDF><rdf:Description><dc:title>Lorelei</dc:title><dc:creator>Lisa Wischofsky</dc:creator><dc:source xsi:type="dcterms:URI">https://www.figma.com/community/file/1198749693280469639</dc:source><dcterms:license xsi:type="dcterms:URI">https://creativecommons.org/publicdomain/zero/1.0/</dcterms:license><dc:rights>Remix of „Lorelei” (https://www.figma.com/community/file/1198749693280469639) by „Lisa Wischofsky”, licensed under „CC0 1.0” (https://creativecommons.org/publicdomain/zero/1.0/)</dc:rights></rdf:Description></rdf:RDF></metadata><mask id="viewboxMask"><rect width="980" height="980" rx="0" ry="0" x="0" y="0" fill="#fff" /></mask><g mask="url(#viewboxMask)"><g transform="translate(10 -60)"><path d="M495 234c28 1 56 6 84 15a201 201 0 0 1 100 65c19 25 31 55 35 86a361 361 0 0 1 2 101l-5 34-4 20c-1 2-1 2-3 2-2-4-2-8-2-12-1-15 1-29 2-44 1-24 3-48 1-72l-6-45c-7-28-20-54-40-75-18-18-40-33-63-43-22-9-44-15-67-19-18-3-36-4-54-4a277 277 0 0 0-128 29c-13 9-25 20-35 32a276 276 0 0 0-55 139c-1 24 0 47 8 70l7 15 12 1 1 3c-3 2-7 2-11 3-10 2-20 6-29 12-7 5-14 11-18 19-5 10-3 22-1 33 5 19 17 37 33 49 11 9 25 14 39 16 10 2 20 0 30-1 5 4 8 12 11 17l18 27a136 136 0 0 0 66 50c22 9 45 14 68 19l41 8 17 5v4h-12a535 535 0 0 1-67-8 255 255 0 0 1-84-33c-11-7-21-16-29-27a214 214 0 0 1-16 123c-15 27-40 48-70 57-3 1-7 2-10 1-2 0-2-1-2-3 1-3 4-5 6-6 12-8 26-14 38-23 13-11 24-23 31-38 6-15 10-32 12-49 2-13 3-26 2-40l-4-38-18-36-19 4a88 88 0 0 1-75-38 93 93 0 0 1-20-58c0-9 3-18 8-25s12-13 19-17c5-4 12-6 18-8l-9-24c-5-22-5-45-2-67a292 292 0 0 1 63-149c9-10 18-19 29-26 7-4 14-5 20-9 43-19 90-25 137-22Z" fill="#000"/><path d="M475 243a276 276 0 0 1 121 23c23 10 45 25 63 43 20 21 33 47 40 75l6 45c2 24 0 48-1 72-1 15-3 29-2 44 0 4 0 8 2 12l-1 20c-2 5-2 10-2 16-2 24-2 49-6 74-1 12-3 25-8 36-3 9-8 17-15 24-12 13-27 24-43 33-19 11-39 16-58 24-5 2-10 4-13 8 8 1 15 0 23-2-5 12-6 24-6 36 0 5-1 11 1 16 3 5 8 9 13 12l35 13c22 8 43 18 65 27 2 4 5 7 6 12 6 11 7 23 3 35-5 13-15 24-27 31-16 11-36 19-55 24a494 494 0 0 1-235-7c-20-7-40-14-58-24-14-8-29-18-40-31-6-8-11-19-12-29a122 122 0 0 0 86-107c4-24 4-49 0-73 8 11 18 20 29 27l27 14a331 331 0 0 0 124 27h12v-4l-17-5-41-8c-23-5-46-10-68-19-13-6-27-13-39-21-10-9-19-18-27-29l-18-27c-3-5-6-13-11-17-10 1-20 3-30 1-14-2-28-7-39-16a94 94 0 0 1-33-49c-2-11-4-23 1-33 4-8 11-14 18-19 9-6 19-10 29-12 4-1 8-1 11-3l-1-3-12-1-7-15c-8-23-9-46-7-70a276 276 0 0 1 54-139c10-12 22-23 35-32a277 277 0 0 1 128-30Z" fill="#ffffff"/><path d="M260 571c4 0 7 0 11 2 5 1 11 4 14 8 2 3 2 7 0 10-5 6-12 10-16 16 6 4 14 6 21 9 4 1 8 3 11 6l1 3-8-2-24-7c-4-1-8-3-9-7-1-3 1-7 3-10l15-13c-4-7-15-8-19-15ZM703 577l2 3 2 16a483 483 0 0 1-2 89c-2 11-5 23-10 33a198 198 0 0 1-106 71c-1 14-3 31-2 47l5 5c8 6 18 9 27 12a451 451 0 0 1 68 28c7 4 13 9 18 15-5 1-10-1-16-2-22-9-43-19-65-27l-35-13c-5-3-10-7-13-12-2-5-1-11-1-16 0-12 1-24 6-36-8 2-15 3-23 2 3-4 8-6 13-8 19-8 39-13 58-24 16-9 31-20 43-33 7-7 12-15 15-24 5-11 7-24 8-36 4-25 4-50 6-74 0-6 0-11 2-16Z" fill="#000"/><path d="M681 473c6 2 12 7 15 13 2 3 2 6 0 9-2 4-8 6-12 3-4-2-6-6-9-9-7-3-13-2-19 0 3 3 6 6 7 10 4 12 3 25-2 36l10-5c0 4 0 7-2 11-5 6-13 10-20 11-9 1-17 2-25-2-4-3-5-7-5-11l-2-10c0-7 3-13 6-19 7-14 18-26 31-33 8-4 18-6 27-4ZM456 484c27 1 53 17 65 41 2 3 3 6 1 10-3-1-4-3-6-6-6-9-13-17-22-23-10-6-22-9-34-9 6 10 9 21 8 32-1 9-4 19-12 26 4 1 7 2 9 4-6 3-13 3-20 1-9-2-17-6-25-11-8-6-16-13-20-23l-4-8c-2-4-1-8 2-11l10-9c14-10 31-15 48-14Z" fill="#000000"/><path d="M533 358c6 2 9 8 10 14 0 8-3 16-7 22-3 3-7 4-10 1-4-3-2-10-2-15l-13 10c-6 4-13 7-20 9-9 4-19 5-30 8l-25 8c-8 3-15 8-22 12l-25 17c-5 3-8 7-11 12-2-4-1-8 1-11a401 401 0 0 1 35-29c16-13 36-21 55-28l28-11c8-4 14-11 21-16 5-2 10-4 15-3ZM626 376l6 7c17 7 33 7 49 16 4 2 7 6 9 10s1 8-2 12l-16-6c-12-6-24-7-36-11-7-3-14-4-19-10-4 8-4 17-8 26-1 1-1 4-4 3l-1-8 2-11c1-8 4-16 7-23 2-6 8-8 13-5Z" fill="#000000"/><path d="M603 613v1c-4 8-11 15-20 18-3 1-7 1-9-1v-4c7-5 16-9 24-12l5-2Z" fill="#000000"/><path d="M476 660c3 0 5 2 7 4l13 7c11 5 23 8 34 11 15 5 30 6 45 6 12 1 23 2 34 1l4 2c-18 9-41 11-61 10-23-1-46-8-66-18-6-4-13-8-14-16-1-3 1-7 4-7Z" fill="#000000"/><path d="M631 178a213 213 0 0 1 54 22c3 2 3 5 4 8l-13-2c-10-1-20-3-30-2-22 1-43 6-62 16 16 0 31 0 47 4 29 6 56 18 77 39 17 16 30 36 36 59 5 19 6 39 1 59a127 127 0 0 1-73 84l-20 9-5-2c1-10 4-18 6-27l2-24c0-11-2-22-4-33l-9 20c-9 17-24 32-41 41-12 8-27 13-41 17-18 5-37 7-56 9h-19c-3 0-3-2-5-4l7-10c5-9 11-18 15-28l7-25c4-14 5-28 5-43a299 299 0 0 1-108 125c-12 8-26 13-39 18-6 2-11 4-17 1l2-13 4-30c-7 15-13 32-16 49-5 28-1 55 5 83l2 15c-8 2-16 1-24-2-26-10-49-32-59-59 0-4-4-4-6-6-10-5-18-14-23-23-9-14-15-31-17-48a204 204 0 0 1 30-136c11-20 25-37 41-53a146 146 0 0 1 75-38 432 432 0 0 0 57-16c27-10 51-24 77-36a229 229 0 0 1 133-18Z" fill="#000000"/></g><g transform="translate(10 -60)"></g></g></svg>